<svg width="12" height="13" viewBox="0 0 12 13" fill="none" xmlns="http://www.w3.org/2000/svg">
<path d="M2.21967 4.96967C2.51256 4.67678 2.98744 4.67678 3.28033 4.96967L6 7.68934L8.71967 4.96967C9.01256 4.67678 9.48744 4.67678 9.78033 4.96967C10.0732 5.26256 10.0732 5.73744 9.78033 6.03033L6.53033 9.28033C6.23744 9.57322 5.76256 9.57322 5.46967 9.28033L2.21967 6.03033C1.92678 5.73744 1.92678 5.26256 2.21967 4.96967Z" fill="white"/>
<path d="M2.21967 4.96967C2.51256 4.67678 2.98744 4.67678 3.28033 4.96967L6 7.68934L8.71967 4.96967C9.01256 4.67678 9.48744 4.67678 9.78033 4.96967C10.0732 5.26256 10.0732 5.73744 9.78033 6.03033L6.53033 9.28033C6.23744 9.57322 5.76256 9.57322 5.46967 9.28033L2.21967 6.03033C1.92678 5.73744 1.92678 5.26256 2.21967 4.96967Z" fill="white"/>
</svg>
