<svg width="12" height="13" viewBox="0 0 12 13" fill="none" xmlns="http://www.w3.org/2000/svg">
<path d="M2.21967 8.03033C2.51256 8.32322 2.98744 8.32322 3.28033 8.03033L6 5.31066L8.71967 8.03033C9.01256 8.32322 9.48744 8.32322 9.78033 8.03033C10.0732 7.73744 10.0732 7.26256 9.78033 6.96967L6.53033 3.71967C6.23744 3.42678 5.76256 3.42678 5.46967 3.71967L2.21967 6.96967C1.92678 7.26256 1.92678 7.73744 2.21967 8.03033Z" fill="white"/>
<path d="M2.21967 8.03033C2.51256 8.32322 2.98744 8.32322 3.28033 8.03033L6 5.31066L8.71967 8.03033C9.01256 8.32322 9.48744 8.32322 9.78033 8.03033C10.0732 7.73744 10.0732 7.26256 9.78033 6.96967L6.53033 3.71967C6.23744 3.42678 5.76256 3.42678 5.46967 3.71967L2.21967 6.96967C1.92678 7.26256 1.92678 7.73744 2.21967 8.03033Z" fill="white"/>
</svg>
