<svg width="69" height="40" viewBox="0 0 69 40" fill="none" xmlns="http://www.w3.org/2000/svg">
<path d="M22.9549 16.9635L23.3942 17.6509C23.8968 18.4551 24.2864 19.3247 24.5519 20.2351C24.8205 21.1822 24.9305 22.1672 24.8776 23.1502C24.7795 24.4829 24.5957 25.8079 24.3271 27.117C24.6708 26.9335 24.9913 26.7836 25.3014 26.6002C25.9744 26.2035 26.6071 25.7422 27.1905 25.2228C27.7361 24.7032 28.231 24.133 28.6687 23.5197C29.1597 22.8066 29.5754 22.0445 29.9091 21.2456C30.1939 20.6104 30.4407 19.9589 30.6482 19.2945C30.6715 19.2221 30.6921 19.1342 30.7128 19.0593C28.4017 17.5895 25.6967 16.8609 22.96 16.9712L22.9549 16.9635ZM13.4526 23.5249C13.4475 23.5574 13.4475 23.5906 13.4526 23.6231C13.5818 23.9229 13.6981 24.233 13.8376 24.5224C14.1752 25.2059 14.5887 25.8491 15.0703 26.4399C15.471 26.9332 15.9156 27.389 16.3986 27.8018L16.732 28.0603C17.4316 28.5516 18.1787 28.9715 18.9622 29.3136C19.4928 29.5514 20.0286 29.7693 20.5696 29.9674C20.9977 30.1333 21.4342 30.2764 21.8772 30.3964C21.9324 30.3129 21.9833 30.2267 22.0297 30.138L22.5 29.1973C22.8284 28.5456 23.1049 27.869 23.327 27.1739C23.5314 26.5089 23.6784 25.8276 23.7663 25.1375C23.8309 24.724 23.8852 24.1038 23.8955 23.8298C23.9266 23.3595 23.8955 22.8866 23.8955 22.4137V22.2043C19.5307 23.8453 16.3495 24.1968 13.4293 23.5559L13.4526 23.5249ZM10.0207 21.243L10.5995 21.5557C11.0699 21.7909 11.5531 22.0364 12.0364 22.2509C12.3329 22.3856 12.6365 22.5038 12.946 22.6049C13.8782 22.9081 14.8525 23.0616 15.8327 23.0597C16.1221 23.0597 16.4115 23.0391 16.7113 23.0184C17.1831 22.9845 17.6525 22.9232 18.1171 22.8349L17.9001 22.4498C17.7812 22.1914 17.6649 21.933 17.546 21.6901C17.3294 21.2242 17.1447 20.7441 16.993 20.2532C16.8268 19.7391 16.6888 19.2163 16.5795 18.6872C16.4839 18.2272 16.4529 17.7543 16.3986 17.2943C16.3766 16.9587 16.3766 16.622 16.3986 16.2864C16.3986 15.9556 16.4193 15.6222 16.4503 15.2915C16.4813 14.9607 16.4736 14.9271 16.4942 14.7384C16.5485 14.3249 16.6234 13.9244 16.6881 13.5161C16.7527 13.1078 16.8043 12.9656 16.8586 12.702C16.8586 12.6374 16.8793 12.5728 16.8896 12.4979C16.3895 12.7682 15.9063 13.0685 15.4424 13.3972C14.8758 13.7942 14.3418 14.2358 13.8454 14.7178C13.4543 15.0877 13.0825 15.4776 12.7316 15.8858C12.2199 16.5129 11.7812 17.196 11.4239 17.9222C11.1784 18.4055 10.9536 18.8991 10.7288 19.3927C10.4525 20.0002 10.2092 20.6222 10 21.2559L10.0207 21.243ZM19.5178 9.66554C20.2362 9.90071 20.9443 10.1462 21.6291 10.4408C22.508 10.8055 23.3514 11.2501 24.1488 11.7691C24.5874 12.075 24.9967 12.4211 25.3712 12.8028C26.0036 13.4406 26.5548 14.1541 27.0122 14.9271C27.3532 15.5039 27.6437 16.1092 27.8805 16.7361C24.4035 15.7664 20.6856 16.189 17.515 17.9145C17.435 17.347 17.3987 16.7742 17.4065 16.2011C17.4194 15.7876 17.4297 15.3845 17.4607 14.9788C17.4918 14.573 17.5357 14.1415 17.6106 13.7228C17.7233 13.1102 17.8965 12.5104 18.1275 11.9319C18.3187 11.4518 18.5361 10.9824 18.7787 10.5261C18.9415 10.216 19.1328 9.91621 19.2956 9.60352L19.4997 9.65779L19.5178 9.66554Z" fill="#F8964F"/>
<path d="M41.7129 26L55.7129 26M41.7129 20H55.7129M41.7129 14H56" stroke="#F8964F" stroke-width="2" stroke-linecap="round" stroke-linejoin="round"/>
</svg>
