<svg width="59" height="40" viewBox="0 0 59 40" fill="none" xmlns="http://www.w3.org/2000/svg">
<path d="M12.9549 16.9635L13.3942 17.6509C13.8968 18.4551 14.2864 19.3247 14.5519 20.2352C14.8205 21.1822 14.9305 22.1672 14.8776 23.1502C14.7795 24.4829 14.5957 25.808 14.3271 27.117C14.6708 26.9336 14.9913 26.7837 15.3014 26.6002C15.9744 26.2036 16.6071 25.7422 17.1905 25.2228C17.7361 24.7032 18.231 24.133 18.6687 23.5198C19.1597 22.8067 19.5754 22.0445 19.9091 21.2456C20.1939 20.6104 20.4407 19.9589 20.6482 19.2945C20.6715 19.2221 20.6921 19.1343 20.7128 19.0593C18.4017 17.5895 15.6967 16.861 12.96 16.9713L12.9549 16.9635ZM3.45257 23.5249C3.44748 23.5575 3.44748 23.5906 3.45257 23.6231C3.58178 23.9229 3.69807 24.233 3.83762 24.5225C4.17518 25.2059 4.58868 25.8491 5.07031 26.44C5.47095 26.9332 5.91555 27.389 6.39862 27.8019L6.73199 28.0603C7.43159 28.5516 8.17873 28.9715 8.9622 29.3137C9.49283 29.5514 10.0286 29.7694 10.5696 29.9675C10.9977 30.1333 11.4341 30.2765 11.8772 30.3965C11.9324 30.313 11.9833 30.2267 12.0297 30.138L12.5 29.1974C12.8284 28.5456 13.1049 27.869 13.327 27.1739C13.5314 26.5089 13.6784 25.8276 13.7663 25.1375C13.8309 24.724 13.8852 24.1038 13.8955 23.8299C13.9266 23.3595 13.8955 22.8866 13.8955 22.4137V22.2044C9.53074 23.8454 6.34952 24.1968 3.42931 23.5559L3.45257 23.5249ZM0.0206785 21.243L0.599549 21.5557C1.06988 21.7909 1.55314 22.0364 2.03639 22.2509C2.33285 22.3856 2.63653 22.5038 2.94605 22.6049C3.87818 22.9081 4.85247 23.0616 5.83267 23.0598C6.1221 23.0598 6.41154 23.0391 6.71131 23.0184C7.18308 22.9845 7.65248 22.9232 8.11715 22.8349L7.90007 22.4499C7.78119 22.1915 7.6649 21.933 7.54603 21.6901C7.32943 21.2242 7.14466 20.7442 6.99299 20.2533C6.82678 19.7392 6.68876 19.2164 6.57952 18.6872C6.4839 18.2272 6.45289 17.7543 6.39862 17.2943C6.37664 16.9587 6.37664 16.622 6.39862 16.2864C6.39862 15.9556 6.4193 15.6223 6.45031 15.2915C6.48132 14.9607 6.47356 14.9271 6.49424 14.7385C6.5485 14.325 6.62345 13.9244 6.68805 13.5161C6.75266 13.1078 6.80435 12.9657 6.85862 12.7021C6.85862 12.6375 6.87929 12.5729 6.88963 12.4979C6.38953 12.7682 5.90625 13.0685 5.44244 13.3972C4.87582 13.7943 4.34177 14.2358 3.84537 14.7178C3.45427 15.0877 3.0825 15.4776 2.73156 15.8859C2.21987 16.5129 1.78117 17.1961 1.42393 17.9223C1.17842 18.4055 0.953592 18.8991 0.728762 19.3927C0.452496 20.0002 0.20922 20.6222 0 21.256L0.0206785 21.243ZM9.51782 9.66557C10.2362 9.90074 10.9443 10.1462 11.6291 10.4408C12.508 10.8055 13.3514 11.2501 14.1488 11.7692C14.5874 12.075 14.9967 12.4211 15.3712 12.8029C16.0036 13.4406 16.5548 14.1541 17.0122 14.9271C17.3532 15.504 17.6437 16.1092 17.8805 16.7361C14.4035 15.7664 10.6856 16.1891 7.51502 17.9145C7.43498 17.347 7.39869 16.7742 7.40648 16.2011C7.4194 15.7877 7.42973 15.3845 7.46074 14.9788C7.49176 14.5731 7.53569 14.1415 7.61064 13.7228C7.72334 13.1103 7.89646 12.5104 8.12749 11.932C8.31869 11.4518 8.53609 10.9825 8.77872 10.5261C8.94152 10.216 9.13276 9.91624 9.29557 9.60355L9.49973 9.65782L9.51782 9.66557Z" fill="white"/>
<path d="M12.9549 16.9635L13.3942 17.6509C13.8968 18.4551 14.2864 19.3247 14.5519 20.2352C14.8205 21.1822 14.9305 22.1672 14.8776 23.1502C14.7795 24.4829 14.5957 25.808 14.3271 27.117C14.6708 26.9336 14.9913 26.7837 15.3014 26.6002C15.9744 26.2036 16.6071 25.7422 17.1905 25.2228C17.7361 24.7032 18.231 24.133 18.6687 23.5198C19.1597 22.8067 19.5754 22.0445 19.9091 21.2456C20.1939 20.6104 20.4407 19.9589 20.6482 19.2945C20.6715 19.2221 20.6921 19.1343 20.7128 19.0593C18.4017 17.5895 15.6967 16.861 12.96 16.9713L12.9549 16.9635ZM3.45257 23.5249C3.44748 23.5575 3.44748 23.5906 3.45257 23.6231C3.58178 23.9229 3.69807 24.233 3.83762 24.5225C4.17518 25.2059 4.58868 25.8491 5.07031 26.44C5.47095 26.9332 5.91555 27.389 6.39862 27.8019L6.73199 28.0603C7.43159 28.5516 8.17873 28.9715 8.9622 29.3137C9.49283 29.5514 10.0286 29.7694 10.5696 29.9675C10.9977 30.1333 11.4341 30.2765 11.8772 30.3965C11.9324 30.313 11.9833 30.2267 12.0297 30.138L12.5 29.1974C12.8284 28.5456 13.1049 27.869 13.327 27.1739C13.5314 26.5089 13.6784 25.8276 13.7663 25.1375C13.8309 24.724 13.8852 24.1038 13.8955 23.8299C13.9266 23.3595 13.8955 22.8866 13.8955 22.4137V22.2044C9.53074 23.8454 6.34952 24.1968 3.42931 23.5559L3.45257 23.5249ZM0.0206785 21.243L0.599549 21.5557C1.06988 21.7909 1.55314 22.0364 2.03639 22.2509C2.33285 22.3856 2.63653 22.5038 2.94605 22.6049C3.87818 22.9081 4.85247 23.0616 5.83267 23.0598C6.1221 23.0598 6.41154 23.0391 6.71131 23.0184C7.18308 22.9845 7.65248 22.9232 8.11715 22.8349L7.90007 22.4499C7.78119 22.1915 7.6649 21.933 7.54603 21.6901C7.32943 21.2242 7.14466 20.7442 6.99299 20.2533C6.82678 19.7392 6.68876 19.2164 6.57952 18.6872C6.4839 18.2272 6.45289 17.7543 6.39862 17.2943C6.37664 16.9587 6.37664 16.622 6.39862 16.2864C6.39862 15.9556 6.4193 15.6223 6.45031 15.2915C6.48132 14.9607 6.47356 14.9271 6.49424 14.7385C6.5485 14.325 6.62345 13.9244 6.68805 13.5161C6.75266 13.1078 6.80435 12.9657 6.85862 12.7021C6.85862 12.6375 6.87929 12.5729 6.88963 12.4979C6.38953 12.7682 5.90625 13.0685 5.44244 13.3972C4.87582 13.7943 4.34177 14.2358 3.84537 14.7178C3.45427 15.0877 3.0825 15.4776 2.73156 15.8859C2.21987 16.5129 1.78117 17.1961 1.42393 17.9223C1.17842 18.4055 0.953592 18.8991 0.728762 19.3927C0.452496 20.0002 0.20922 20.6222 0 21.256L0.0206785 21.243ZM9.51782 9.66557C10.2362 9.90074 10.9443 10.1462 11.6291 10.4408C12.508 10.8055 13.3514 11.2501 14.1488 11.7692C14.5874 12.075 14.9967 12.4211 15.3712 12.8029C16.0036 13.4406 16.5548 14.1541 17.0122 14.9271C17.3532 15.504 17.6437 16.1092 17.8805 16.7361C14.4035 15.7664 10.6856 16.1891 7.51502 17.9145C7.43498 17.347 7.39869 16.7742 7.40648 16.2011C7.4194 15.7877 7.42973 15.3845 7.46074 14.9788C7.49176 14.5731 7.53569 14.1415 7.61064 13.7228C7.72334 13.1103 7.89646 12.5104 8.12749 11.932C8.31869 11.4518 8.53609 10.9825 8.77872 10.5261C8.94152 10.216 9.13276 9.91624 9.29557 9.60355L9.49973 9.65782L9.51782 9.66557Z" fill="#6C6A6A"/>
<path d="M31.7129 26L45.7129 26M31.7129 20H45.7129M31.7129 14H46" stroke="white" stroke-width="2" stroke-linecap="round" stroke-linejoin="round"/>
<path d="M31.7129 26L45.7129 26M31.7129 20H45.7129M31.7129 14H46" stroke="#6C6A6A" stroke-width="2" stroke-linecap="round" stroke-linejoin="round"/>
</svg>
